<?xml version="1.0" encoding="utf-8"?>
<svg viewBox="52.407 10.014 1215.309 609.711" xmlns="http://www.w3.org/2000/svg">
  <polyline style="fill: rgb(216, 216, 216); stroke: rgb(0, 0, 0);" points="629.696 270.474"/>
  <rect x="335.036" y="54.999" width="47.968" height="82.916" style="fill: rgb(102, 51, 153);"/>
  <rect x="389.171" y="54.656" width="47.968" height="82.916" style="fill: rgb(102, 51, 153);"/>
  <rect x="443.649" y="54.142" width="47.968" height="82.916" style="fill: rgb(102, 51, 153);"/>
  <rect x="497.784" y="53.799" width="47.968" height="82.916" style="fill: rgb(102, 51, 153);"/>
  <rect x="333.837" y="167.638" width="47.968" height="82.916" style="fill: rgb(102, 51, 153);"/>
  <rect x="387.972" y="167.295" width="47.968" height="82.916" style="fill: rgb(102, 51, 153);"/>
  <rect x="442.764" y="166.438" width="102.788" height="82.916" style="fill: rgb(102, 51, 153);"/>
  <polygon style="stroke: rgb(0, 0, 0); fill: rgb(0, 120, 0);" points="208.291 249.978 208.291 168.386 124.636 168.386 124.636 208.184 163.939 249.293" transform="matrix(-1, 0, 0, -1, 332.927002, 418.363998)"/>
  <polygon style="stroke: rgb(0, 0, 0); fill: rgb(0, 120, 0);" points="327.525 167.7 327.525 249.292 243.87 249.292 243.87 209.494 283.173 168.385"/>
  <polygon style="stroke: rgb(0, 0, 0); fill: rgb(0, 120, 0);" points="327.526 137.424 327.526 55.832 243.871 55.832 243.871 95.63 283.174 136.739"/>
  <polygon style="stroke: rgb(0, 0, 0); fill: rgb(0, 120, 0);" points="208.976 55.948 208.976 137.54 125.321 137.54 125.321 97.742 164.624 56.633" transform="matrix(-1, 0, 0, -1, 334.296997, 193.487999)"/>
  <circle style="fill: rgb(139, 0, 0);" cx="224.71" cy="151.305" r="22.82"/>
  <polygon style="stroke: rgb(0, 0, 0); fill: rgb(0, 120, 0);" points="639.317 54.003 639.317 135.595 555.662 135.595 555.662 95.797 594.965 54.688" transform="matrix(-1, 0, 0, -1, 1194.979004, 189.598)"/>
  <polygon style="stroke: rgb(0, 0, 0); fill: rgb(0, 120, 0);" points="637.946 249.607 637.946 168.015 554.291 168.015 554.291 207.813 593.594 248.922" transform="matrix(-1, 0, 0, -1, 1192.237, 417.621994)"/>
  <polygon style="stroke: rgb(0, 0, 0); fill: rgb(0, 120, 0);" points="773.627 135.281 773.627 53.689 689.972 53.689 689.972 93.487 729.275 134.596"/>
  <polygon style="stroke: rgb(0, 0, 0); fill: rgb(0, 120, 0);" points="773.886 168.441 773.886 250.033 690.231 250.033 690.231 210.235 729.534 169.126"/>
  <rect x="554.318" y="259.289" width="84.287" height="167.888" style="fill: rgb(102, 51, 153);"/>
  <rect x="690.685" y="258.863" width="83.601" height="50.024" style="fill: rgb(102, 51, 153);"/>
  <rect x="690.314" y="317.109" width="83.601" height="50.024" style="fill: rgb(102, 51, 153);"/>
  <rect x="690.999" y="375.356" width="83.601" height="50.024" style="fill: rgb(102, 51, 153);"/>
  <rect x="269.843" y="275.708" width="57.882" height="57.882" style="fill: rgb(139, 0, 0);" transform="matrix(0.707107, 0.707107, -0.707107, 0.707107, 668.834839, -274.533203)"/>
  <rect x="782.602" y="54.335" width="157.243" height="82.916" style="fill: rgb(102, 51, 153);"/>
  <rect x="945.35" y="54.135" width="47.968" height="82.916" style="fill: rgb(102, 51, 153);"/>
  <rect x="781.403" y="167.974" width="105.431" height="82.916" style="fill: rgb(102, 51, 153);"/>
  <rect x="892.108" y="167.459" width="99.779" height="82.916" style="fill: rgb(102, 51, 153);"/>
  <rect x="1000.441" y="53.475" width="208.111" height="195.959" style="fill: rgb(0, 120, 0);"/>
  <rect x="690.899" y="433.957" width="84.287" height="167.888" style="fill: rgb(0, 120, 0);"/>
  <rect x="553.533" y="552.236" width="130.702" height="50.024" style="fill: rgb(0, 120, 0);"/>
  <rect x="553.533" y="434.483" width="83.601" height="71.69" style="fill: rgb(0, 120, 0);"/>
</svg>